<svg xmlns="http://www.w3.org/2000/svg" viewBox="0 0 1216.86 462.45"><defs><style>.cls-1{fill:#bc1dc4;}.cls-13,.cls-14,.cls-2{fill:#e88229;}.cls-3{fill:#e37c2b;}.cls-4{fill:#990fad;}.cls-5{fill:#baa1bc;}.cls-6{fill:#ad19b6;}.cls-7{fill:#c721cb;}.cls-8{fill:#b04f36;}.cls-9{fill:#fda02b;}.cls-10{fill:#ea6c28;}.cls-11{fill:#e88129;}.cls-12{fill:#e08d25;}.cls-13{font-size:254.42px;letter-spacing:0.01em;}.cls-13,.cls-14{font-family:TimesNewRomanPSMT, Times New Roman;}.cls-14{font-size:69.07px;letter-spacing:0.65em;}.cls-15{letter-spacing:0.56em;}.cls-16{letter-spacing:0.63em;}</style></defs><g id="Layer_2" data-name="Layer 2"><g id="Layer_1-2" data-name="Layer 1"><path class="cls-1" d="M254.72,462.45a56.12,56.12,0,0,1,21,0Z"/><path class="cls-2" d="M401.07,182.1l-.69-.09a3.71,3.71,0,0,1,1.64-2.93c6.1-4.93,13-8.81,18.31-14.79a6,6,0,0,1,4.83-2.19l0,0A136.23,136.23,0,0,1,401.07,182.1Z"/><path class="cls-3" d="M342.64,214.26c0-4.44,2.87-2.34,4.91-2.1A10,10,0,0,1,342.64,214.26Z"/><path class="cls-4" d="M53.51,201.48c-.2,2.24.25,4.61-1.23,6.61A7.42,7.42,0,0,1,53.51,201.48Z"/><path class="cls-4" d="M54.89,195.91a7.75,7.75,0,0,1-1.31,5.31C53.43,199.31,52.63,197.23,54.89,195.91Z"/><path class="cls-4" d="M51.09,216a3.29,3.29,0,0,1-.49,3.24A2.9,2.9,0,0,1,51.09,216Z"/><path class="cls-5" d="M52,210l-.24,1.31Z"/><path class="cls-6" d="M294.67,460.27c2.52-2.08,5.43-2.59,8.66-2.92A69.18,69.18,0,0,0,323,452.66c3.18-1.32,6.06-.79,9.07-1.1C320.06,456.42,307.49,458.88,294.67,460.27Z"/><path class="cls-7" d="M421.33,393.64l-1,2.7c0,1.18-.82,1.39-1.72,1.57l-.32-.33C418.7,395.81,418.94,393.9,421.33,393.64Z"/><path class="cls-4" d="M478.19,278c.25-2-.78-4.24.84-6.08C478.62,274,480.87,276.34,478.19,278Z"/><polygon class="cls-6" points="391.07 421.6 391.07 421.61 390.96 421.82 391.07 421.6"/><path class="cls-8" d="M341.46,414.67a2.52,2.52,0,0,0,2.57-2.79l5.45-.31,3-.12c1.69.64,4.35-1,5,2.11a.73.73,0,0,0-.13.64c-1,.34-2.26,0-3,1-5.42-.24-9.19,2.93-12.88,6.25h0c-1.61.15-3.57-.41-4.09,2h-.43l-.41.13c-1.63,0-3.53-.5-4.05,1.9l.05,0c-1.71.06-3.67-.47-4.4,1.88l-.29-.09-.29.07c-8.8,2.6-17.49,5.8-26.46,7.56-4.74.93-9.49,2.44-14.42,2.53-3.4.8-7.42-1.71-10.3,1.92l-28.31,0a2.22,2.22,0,0,0-2.16-1.7,106,106,0,0,1-18.46-1.9c-11.13-2.34-22.11-4.83-32.62-9.27-11.5-4.87-22.54-10.64-33.49-16.6a9.27,9.27,0,0,0-2.89-.53c-1.21-4.36-5.54-5.52-8.62-7.52-14.17-9.23-24.91-21.77-35.65-34.52-7-8.35-12.7-17.58-18.46-26.66-4.3-6.8-8.84-13.81-11.27-21.73-.22-.71-.92-1.51.16-2.14,1.58.37,1.8,1.83,2.33,3a208,208,0,0,0,35.7,53,189.47,189.47,0,0,0,37.25,32c.8,3,3.85,1.94,5.7,3.14a142.44,142.44,0,0,0,33.69,16.19c10.95,3.57,21.75,8.06,33.53,8.5l2.95,0c1.41,2.57,3.83,1.83,6,1.82,9.21-.6,18.29,1.34,27.65.44q15.31-1.49,30.28-4.43a178.31,178.31,0,0,0,39.23-13.12C340.11,416.78,341.49,416.39,341.46,414.67Z"/><path class="cls-6" d="M241.75,451.48c.15-1,.38-2,1.7-1.77.31.05.83.71.76.9-.45,1.17-1.57.74-2.46.87Z"/><path class="cls-9" d="M123.27,191.73a184.15,184.15,0,0,0-6.73,34,154.35,154.35,0,0,0,4.56,53.16c4.87,18.48,14.08,34.74,25.6,49.81a2.13,2.13,0,0,0-1.66,2.64c.82,7.51,1.47,15.05,2.53,22.53a207.88,207.88,0,0,0,13.26,48.45c.5,1.25.83,2.21-1,2.44a189.47,189.47,0,0,1-37.25-32,208,208,0,0,1-35.7-53c-.53-1.16-.75-2.62-2.33-3l-.41-1a39.19,39.19,0,0,0-5.77-14.91A209.75,209.75,0,0,1,68,227.44a206.62,206.62,0,0,1,46.22-122.12c1.6.34,1.31,1.26,1.16,2.59a199,199,0,0,0,5.31,73.73C121.61,185,122.42,188.37,123.27,191.73Z"/><path class="cls-3" d="M161.21,134.58l-13,13.92c.3-1.86.43-5.29.92-5.34C154.87,142.54,155.07,134.32,161.21,134.58Z"/><path class="cls-3" d="M140.29,158.59a5.15,5.15,0,0,1-2.29,3.57,4,4,0,0,0-.07-.48c-.45-1.53-3.77-2.26-1.59-4.41C138,155.65,138.69,158.9,140.29,158.59Z"/><path class="cls-6" d="M152.71,68.36c-.82-.72-2.91-.75-1.7-2.63,1.51-2.34,3.31-.91,5-.15Z"/><path class="cls-3" d="M166,130.38c-1.44,1.58-2.74,3.31-4.79,4.18C161.6,131.78,163.12,130.29,166,130.38Z"/><path class="cls-3" d="M146.29,150.59c-.6,1.62-1.25,3.18-3,3.92C142.89,152.12,143.07,150.2,146.29,150.59Z"/><path class="cls-3" d="M176.79,121.3a4.17,4.17,0,0,1-3.71,3.2C173,121.9,175.06,121.79,176.79,121.3Z"/><path class="cls-3" d="M173.09,124.49c-.38,1.47-1.61,1.78-2.82,2.13C169.83,124.1,171.49,124.33,173.09,124.49Z"/><path class="cls-3" d="M142.07,156.31a2.31,2.31,0,0,1-1.74,2.21C139.94,157,140.59,156.34,142.07,156.31Z"/><path class="cls-3" d="M148.23,148.48a2.48,2.48,0,0,1-1.9,2.08C146,149,146.63,148.29,148.23,148.48Z"/><path class="cls-3" d="M170.21,126.66a2.59,2.59,0,0,1-2.12,1.85C168,127,168.6,126.24,170.21,126.66Z"/><path class="cls-3" d="M168.13,128.47a2.28,2.28,0,0,1-2.12,1.91C166,129,166.67,128.28,168.13,128.47Z"/><path class="cls-3" d="M143.29,154.45a2.11,2.11,0,0,1-1.22,1.85C142.05,155.4,142.17,154.59,143.29,154.45Z"/><path class="cls-7" d="M147,423.55c.38-1.33-2.36-3.75,1.23-3.91,1.44-.06,4.06-1,4.15,1,.18,3.68-3.1,2.74-5.38,2.9Z"/><path class="cls-3" d="M351.59,232.23c1.21-.09,1.77.54,1.79,1.69s-.28,1.94-1.55,1.92a1.83,1.83,0,0,1-2-1.68C349.75,233,350.59,232.5,351.59,232.23Z"/><path class="cls-10" d="M407.18,209.68c1-.06,1,.68,1.06,1.3s0,1.4-.77,1.56c-.94.2-1-.65-1-1.27A1.36,1.36,0,0,1,407.18,209.68Z"/><path class="cls-10" d="M403.35,273.93c-1.28-.19-2.5-.4-1-2A2.06,2.06,0,0,1,403.35,273.93Z"/><path class="cls-7" d="M408.34,405.6c-1-.83-2.24-2.31-1.47-3.14,1.24-1.34,2.47.17,3.47,1.15A1.82,1.82,0,0,1,408.34,405.6Z"/><path class="cls-7" d="M357.33,414.2a.73.73,0,0,1,.13-.64c2.43.68,3.55-2.61,6-2,1.1.13,2.77-.46,3.19.6.87,2.15-2.64.65-2.5,2.63,1.14,1.7,3.49-.09,4.71,1.48-1.71,2.56-3.53,3.59-6.55,1.54-1.14-.77-3.18-.21-4.82-.25C357.42,416.45,357.37,415.32,357.33,414.2Z"/><path class="cls-7" d="M350.48,419.55l3.95-2,3,0c-.14,3.22-3.25,5.61-4.85,6.18C349.14,425,351.15,421.11,350.48,419.55Z"/><path class="cls-7" d="M357.46,417.57l-3,0c0-.77-.09-1.54-.13-2.31.77-1,2-.7,3-1C357.37,415.32,357.42,416.45,357.46,417.57Z"/><path class="cls-11" d="M354.48,147.26l3-2C358.25,148.61,355.56,146.74,354.48,147.26Z"/><path class="cls-11" d="M359.53,136.22a5.68,5.68,0,0,1,0-.92l1,.95H360Z"/><path class="cls-7" d="M423.94,273.76c.47.15,1.33.27,1.34.45.24,3.85-3.34,4.47-5.56,5.38-2.66,1.09-2.26-1.81-2.41-3.51C419.88,276.32,421.39,273.57,423.94,273.76Z"/><path class="cls-7" d="M414.33,277.77c-.42,3.05-2.7,1.94-4.47,2C410.58,277.39,412.6,277.91,414.33,277.77Z"/><path class="cls-7" d="M402.32,283.9c0-.68,0-1.36,0-2l1.76-.13C406.26,284.7,403.43,283.6,402.32,283.9Z"/><path class="cls-7" d="M482.15,234c-1.86-.9-.91-2.61-1-3.95-.93-9-1.65-18.11-4-26.94h0c-.28-.9-.63-1.79-.83-2.7-1-4.78-2-9.59-3.1-14.35-.62-2.61-1.42-1.55-2,.09-1.27,3.79,2.13,7.13,1.06,10.91a2.09,2.09,0,0,1,.9,1.92,2.09,2.09,0,0,0-.9-1.92l-.75,11.45-.12,5.41c.92,2.13.5,4.09-.1,6,.6-1.94,1-3.9.1-6-1.08,2.66-2.39,5.25-3.2,8-3.58,12.14-9.56,22.81-19.36,31-6.69,5.57-13.69,10.81-22.37,13.07a5.59,5.59,0,0,1-4.05,2h0c-3.47,2.09-6.89,4.27-11,5-.73,1.12-1.88,1-3,1-3.15,2.17-7,2.56-10.4,4-.25.33-.5.65-.74,1a15.17,15.17,0,0,0-3,.35c-21.85,7.11-44.27,12.48-65.67,20.94-20.12,7.95-39.34,17.65-54.34,33.81-7.45,8-13.67,16.93-13.63,28.65h0c-.05,1-.11,2-.16,3,.07,2.71.15,5.42.22,8.13,1.13,9.23,1.13,9.23-7.95,9.23l-.29.1,5.31.32c3.57-.91,5.76.37,6.43,4.05,3.29,5.82,7,11.25,13.5,13.95,4.63,5.18,11.1,7.38,17.2,9.8,12.51,5,25.75,5.07,39,4.29.56,0,1.08-.6,1.63-.92l5.94.1a2.53,2.53,0,0,0,2.58-2.78,3.52,3.52,0,0,1-.49-.11,2.56,2.56,0,0,0,.48.1l5.45-.31a2.54,2.54,0,0,1,.25-1.06,2.54,2.54,0,0,0-.25,1.06l3-.12c1.69.64,4.35-1,5,2.11,2.43.68,3.55-2.61,6-2,1.1.13,2.77-.46,3.19.6.87,2.15-2.64.65-2.5,2.63,1.14,1.7,3.49-.09,4.71,1.48-1.71,2.56-3.53,3.59-6.55,1.54-1.14-.77-3.18-.21-4.82-.25-.14,3.22-3.25,5.61-4.85,6.18-3.47,1.22-1.46-2.64-2.13-4.2l3.95-2c0-.77-.09-1.54-.13-2.31-5.41-.24-9.17,2.92-12.86,6.24h0c-1.61.15-3.57-.41-4.09,2h-.43l-.41.13h0c-1.63,0-3.53-.5-4.05,1.9l.05,0h0c-1.71.06-3.67-.47-4.4,1.88l-.29-.09-.29.07h0c-8.8,2.6-17.49,5.8-26.46,7.56-4.74.93-9.49,2.44-14.42,2.53h0c-3.4.8-7.42-1.71-10.3,1.92l-28.31,0-10.39.17,10.39-.18a2.22,2.22,0,0,0-2.16-1.69,106,106,0,0,1-18.46-1.9c-11.13-2.34-22.11-4.83-32.62-9.27-11.5-4.87-22.54-10.64-33.49-16.6a9.27,9.27,0,0,0-2.89-.53c-1.67.45-2.53-.71-3.48-1.63.95.92,1.81,2.08,3.48,1.63-1.21-4.36-5.53-5.52-8.62-7.52-14.17-9.23-24.91-21.77-35.65-34.52-7-8.35-12.7-17.58-18.46-26.66-4.3-6.8-8.84-13.81-11.27-21.73-.22-.71-.92-1.51.16-2.14l-.41-1h0a39.19,39.19,0,0,0-5.77-14.91A209.75,209.75,0,0,1,68,227.44a206.62,206.62,0,0,1,46.22-122.12,172.73,172.73,0,0,1,21.54-22.88c5.43-4.92,11.27-9.4,16.92-14.08-.82-.72-2.91-.75-1.7-2.63,1.51-2.34,3.31-.91,5-.15l14-8.07c2.31-.4,1.64-1.66,2.89-1.09-.17-1.24.9-1.58,1.66-2,6.09-3,12.21-5.94,18.32-8.9-2.14-2.53-4.27.94-6.41,0-.49,1.11-1.63,1.08-2.54,1.46a238.92,238.92,0,0,0-32.12,16.27A215.51,215.51,0,0,0,88.45,123c-14.81,21.24-26,44.28-32.27,69.53a6.48,6.48,0,0,1-1,1.64c-.1.59-.21,1.19-.31,1.78a7.75,7.75,0,0,1-1.31,5.31l-.07.26c-.2,2.24.25,4.61-1.23,6.61-.11.62-.21,1.25-.31,1.88l-.24,1.31c-.21,1.57-.42,3.15-.64,4.73a3.29,3.29,0,0,1-.49,3.24C45.72,262.09,52.45,303,71.51,341.7c5.55,11.28,12.42,21.73,19.76,32a200.59,200.59,0,0,0,57.48,54l.09-.07a49.67,49.67,0,0,0,13.82,8.15l.09,0c2.33,2.22,5.28,3.37,8.17,4.59l1.93.21c4.65,4,10.69,5.18,16,7.75a5.91,5.91,0,0,0,3.78.21,2.27,2.27,0,0,0,1.61,1.68c8.39,2.7,16.71,5.68,25.49,6.93,8.79,2.67,17.88,3.47,27,4.37,0,.31,0,.62,0,.92h8a56.12,56.12,0,0,1,21,0h9c3-2.09,6.81-.86,10-2.18,2.52-2.08,5.43-2.59,8.66-2.92A69.18,69.18,0,0,0,323,452.66c3.18-1.32,6.06-.79,9.07-1.1a6.93,6.93,0,0,1,2.68-1.05A52.21,52.21,0,0,0,353.82,443l0-.1h0c4.14-1.12,7.76-3.43,11.63-5.18,7.32-3,13.71-7.63,20.2-12.07,2.59-.26,3.15-3.26,5.4-4h0l.3-.14a8.41,8.41,0,0,0,5.11-3.77,8.1,8.1,0,0,0,5-3.95,4.2,4.2,0,0,0,2.89-2.13,2.84,2.84,0,0,0,2.12-1.86l0,0,0,0a3.1,3.1,0,0,0,2.15-1.88l-.38-.35h0l.38.35c3.3-1.69,5.72-4.35,8-7.15l1.92-2.82-.32-.33c.43-1.77.67-3.68,3.06-3.94l-1,2.7c4.77-2.15,7.32-6.63,10.51-10.35,10.49-12.27,19.87-25.31,26.53-40.12l-.2-.17c-.11.08-.2.17-.31.24.11-.07.2-.17.31-.24a17.49,17.49,0,0,1,.43-3.53,17.49,17.49,0,0,0-.43,3.53l.2.17a18.91,18.91,0,0,0,4-8c3.26-5.05,5-10.77,7-16.34,5.13-14.07,9.4-28.37,9.85-43.51.25-2-.78-4.24.84-6.08a1.72,1.72,0,0,0,.17-.87c2-1.64.93-3.79,1.09-5.79.2-2.5-1.65-5.64,1.86-7.32v-2a41.89,41.89,0,0,1,0-19.94ZM147,423.56h0c.38-1.33-2.36-3.75,1.23-3.91,1.44-.06,4.06-1,4.15,1C152.55,424.34,149.27,423.4,147,423.56Zm97.22,27.05c-.45,1.17-1.57.74-2.46.87.15-1,.39-2,1.7-1.77C243.76,449.76,244.28,450.42,244.21,450.61Zm103.28-7.09a10,10,0,0,1-2.2,1.36,10,10,0,0,0,2.2-1.36,4,4,0,0,0,1.34-.06A4,4,0,0,1,347.49,443.52Zm8.35-4.79a2.83,2.83,0,0,0-.06-1.67A2.83,2.83,0,0,1,355.84,438.73ZM294.67,321.9c-3,5.13-8.68,7.24-12.73,11.29-3.38,3.38-6.57,6.88-9.61,10.52-1,1.25-1.86,2.27-3.58,2.07l0,0c0,.34,0,.67,0,1-.71-.37-.9-.71,0-1l0,0a72.09,72.09,0,0,1,25.92-23.88,117.08,117.08,0,0,1,12.56-7.44A117.08,117.08,0,0,0,294.67,321.9Zm23.94-12.18h0c-.1,3.21-2.12,2.56-4.08,2C315.23,309.74,316.88,309.64,318.61,309.72ZM317.55,320c-.21,1-.46,1.57-1.23,1.64s-1.45-.06-1.19-.93c.12-.39.94-.64,1.48-.8.19-.05,1-.58.94.09.34-2.83,2.43-2,4-2.15C321.23,320.5,319.13,319.63,317.55,320Zm2.54-10.28a7,7,0,0,1,6.49-3.89h0C325.93,309.64,322.72,309.18,320.09,309.7Zm8.05-4c.73-2.26,2.61-1.84,4.3-1.87-.24,1.91,2.21,1.71,2.62,3.34C332.23,308.83,330.13,307.55,328.14,305.66Zm31.32,101.89Zm7.86-100.08a1.83,1.83,0,0,1-1.68-2c0-1.27.86-1.55,1.92-1.56a1.6,1.6,0,0,1,1.76,1.53C369,306.75,368.48,307.58,367.32,307.47Zm37,103.1h0l.06,1Zm-2-126.67c-.32,0-.64,0-1,0h0l-5.9.07c-1.51,3.52-4.69,1.21-7,2-.82,3.31-3.9,1.45-5.78,2.47-4.38,2.36-9.08,4-14.22,3.51a1.87,1.87,0,0,1-2,1.92,1.81,1.81,0,0,0-2,2c1.33,2.76,3.89,1.77,6.05,2,1,.11,2.69-.39,2.34,1.49-.25,1.34-1.55,1.46-2.8,1.21-3.89-.77-7.91-1-11.58-2.73l-5,.05c.21,2.16,1.89,1.78,3.31,2,1.82.31,3.19,1.37,4.05,3.74-5.54-3.1-11.7-.69-17.33-2.81-3.52,1.56-6.8,4-11,2.92h0c3.17-2.64,7.06-3.29,10.93-4l0,0a7.47,7.47,0,0,1,6.12-1.95l1.53-.21c5.32-3.19,11.36-4.28,17.25-5.81,6.53-2.49,13.11-4.8,20-5.93a10.52,10.52,0,0,1,6.94-2.05l1.7-1.81,5.3-.19,1.76-.13C406.25,284.7,403.43,283.6,402.32,283.9Zm12-6.13c-.42,3.05-2.7,1.94-4.47,2h0C410.58,277.39,412.6,277.91,414.33,277.77ZM409,279.7a7,7,0,0,0-2.12.25A7,7,0,0,1,409,279.7Zm1.31,123.91a1.82,1.82,0,0,1-2,2c-1-.83-2.24-2.31-1.47-3.14,1.24-1.34,2.47.17,3.47,1.15a3.48,3.48,0,0,0,2.66-1.16A3.48,3.48,0,0,1,410.34,403.61Zm2.07-11.77a6.72,6.72,0,0,1,1.52-1.49A6.72,6.72,0,0,0,412.41,391.84Zm2.9,8.74-1-1.95-.41-.24.43.22,0,0,1,1.95Zm4.41-121c-2.66,1.09-2.26-1.81-2.41-3.5,2.57.23,4.08-2.52,6.63-2.33.47.15,1.33.27,1.34.45C425.52,278.06,421.94,278.68,419.72,279.59Zm12.16,96c-.58-2.44-1.47-4.34.71-5.67a1.58,1.58,0,0,1,2.4.92C435.71,373.43,433.61,374.05,431.88,375.62Zm13-11.05q2.43-3.81,4.58-7.84Q447.33,360.77,444.89,364.57Zm17.2-120.63a79.67,79.67,0,0,1-14.51,15.47,79.67,79.67,0,0,0,14.51-15.47,10.45,10.45,0,0,1,3.27-5.82C469.22,242.83,464,242.45,462.09,243.94Zm7-14.22h0a16.78,16.78,0,0,1,1.89,6.13A16.78,16.78,0,0,0,469.08,229.72Zm4.12,66.17a45.44,45.44,0,0,1-1.35,9.49,45.44,45.44,0,0,0,1.35-9.49,6.64,6.64,0,0,0,1.93-3.52A6.64,6.64,0,0,1,473.2,295.89Z"/><path class="cls-7" d="M173,56.44l-.07,0a.31.31,0,0,1,0,.1Z"/><path class="cls-7" d="M431.88,375.62c-.58-2.44-1.47-4.34.71-5.67a1.58,1.58,0,0,1,2.4.92C435.71,373.43,433.61,374.05,431.88,375.62Z"/><path class="cls-7" d="M414.31,398.63l-.41-.24.43.22Z"/><path class="cls-3" d="M335.52,414.57c-.55.32-1.07.89-1.63.92-13.24.78-26.48.68-39-4.29-6.1-2.42-12.57-4.62-17.2-9.8-6.51-2.7-10.21-8.13-13.49-13.95h0c-.67-3.68-2.86-5-6.43-4.05l-5.31-.32.29-.1c-7.64-.79-15.54-.65-22.91-2.54-18.34-4.69-36.11-10.87-51.65-22.4a200.55,200.55,0,0,1-31.49-29.36,2.13,2.13,0,0,0-1.66,2.64c.82,7.51,1.47,15.05,2.53,22.53a207.88,207.88,0,0,0,13.26,48.45c.5,1.25.83,2.21-1,2.44.8,3,3.85,1.94,5.7,3.14a142.44,142.44,0,0,0,33.69,16.19c10.95,3.57,21.75,8.06,33.53,8.5l2.95,0c1.41,2.57,3.83,1.83,6,1.82,9.21-.6,18.29,1.34,27.65.44q15.31-1.49,30.28-4.43a178.31,178.31,0,0,0,39.23-13.12c1.19-.54,2.57-.93,2.54-2.65Z"/><path class="cls-7" d="M482.15,256V236A41.89,41.89,0,0,0,482.15,256Z"/><path class="cls-7" d="M395.33,283.86h0a10.52,10.52,0,0,0-6.94,2.05c-6.93,1.13-13.51,3.44-20,5.93l.13.14c5.14.46,9.84-1.15,14.22-3.51,1.88-1,5,.84,5.78-2.46l0,0,0,0c2.28-.8,5.46,1.51,7-2l5.9-.07c.33,0,.65,0,1,0,0-.68,0-1.36,0-2l-5.3.19Z"/><path class="cls-7" d="M349.57,297.86a7.47,7.47,0,0,0-6.12,1.95l0,0c-3.87.72-7.76,1.37-10.93,4,4.21,1.08,7.49-1.36,11-2.92,5.63,2.12,11.79-.29,17.33,2.81-.86-2.37-2.23-3.43-4.05-3.74-1.42-.24-3.1.14-3.31-2l-2.37-.27Z"/><path class="cls-7" d="M370.49,297.9c-2.16-.25-4.72.74-6.05-2a1.81,1.81,0,0,1,2-2,1.87,1.87,0,0,0,2-1.92l-.13-.14c-5.89,1.53-11.93,2.62-17.25,5.81l2.37.27,5-.05c3.67,1.73,7.69,2,11.58,2.73,1.25.25,2.55.13,2.8-1.21C373.18,297.51,371.49,298,370.49,297.9Z"/><path class="cls-7" d="M332.44,303.79c-1.69,0-3.57-.39-4.3,1.87,2,1.89,4.09,3.17,6.92,1.47C334.65,305.5,332.2,305.7,332.44,303.79Z"/><path class="cls-7" d="M320.09,309.7c2.63-.52,5.84-.06,6.49-3.89A7,7,0,0,0,320.09,309.7Z"/><path class="cls-7" d="M367.56,303.94c-1.06,0-1.94.29-1.92,1.56a1.83,1.83,0,0,0,1.68,2c1.16.11,1.66-.72,2-2A1.6,1.6,0,0,0,367.56,303.94Z"/><path class="cls-7" d="M318.61,309.72c-1.73-.08-3.38,0-4.08,2C316.49,312.28,318.51,312.93,318.61,309.72Z"/><path class="cls-7" d="M462.09,243.94c1.89-1.49,7.13-1.11,3.27-5.82A10.45,10.45,0,0,0,462.09,243.94Z"/><path class="cls-7" d="M268.75,345.78c1.72.2,2.54-.82,3.58-2.07,3-3.64,6.23-7.14,9.61-10.52,4.05-4.05,9.74-6.16,12.73-11.29A72.09,72.09,0,0,0,268.75,345.78Z"/><path class="cls-7" d="M317.56,319.82c1.57-.19,3.67.68,4-2C320,318,317.89,317.15,317.56,319.82Z"/><path class="cls-7" d="M316.61,319.89c-.54.16-1.36.41-1.48.8-.26.87.54,1,1.19.93s1-.67,1.21-1.48S316.8,319.84,316.61,319.89Z"/><path class="cls-7" d="M268.67,346.82c0-.34,0-.67,0-1C267.77,346.11,268,346.45,268.67,346.82Z"/><polygon class="cls-2" points="166.01 130.38 166.01 130.38 166.01 130.38 166.01 130.38"/><path class="cls-2" d="M168.13,128.47h0v0Z"/><path class="cls-2" d="M172.89,56.52h0l0-.07Z"/><path class="cls-2" d="M143.29,154.45h0v0Z"/><path class="cls-2" d="M471.12,186.19c-3.84-4.42-3.7-10.75-7.29-15.44-6,4.51-11.87,9.05-17.88,13.36-10.64,7.62-22.21,13.72-33.61,20.09-1.52.61-3.1,1.12-4.56,1.85-14.88,7.48-30.77,12.36-46.34,18.08-3.76-.75-7,1.35-10.42,2.16A357.89,357.89,0,0,1,296.64,235c-8,.66-16.15.11-23.95.11a6.79,6.79,0,0,1,2.21-1.06,213.79,213.79,0,0,0,33.38-7.54c8-2.42,16.34-4,23.66-8.33l.28.1.27-.14c2.05.22,3.55-.94,5.07-2v0h0a6.15,6.15,0,0,0,5.05-1.94l0,0c0-4.44,2.87-2.34,4.91-2.1h0c3.74-.36,6.78-2.52,10-4.09,15.24-7.42,30.2-15.32,43.5-26l-.68-.09h0a3.71,3.71,0,0,1,1.64-2.93c6.1-4.93,13-8.81,18.31-14.79a6,6,0,0,1,4.84-2.19l0,0q9.9-10.35,19.8-20.72c1.94-2,2-4,.27-6.54-4.62-6.65-9.77-12.86-14.76-19.21-11-14-24.22-25.37-38.78-35.36-.41-.68-.66-1.61-1.25-2-8.63-5.87-17.23-11.79-26.82-16.05-10.36-5.52-21.24-9.57-32.38-13.37a217.85,217.85,0,0,0-50.42-10.6,200.2,200.2,0,0,0-48.78,1.51,201.44,201.44,0,0,0-39.24,9.51l-19.91,7.22c-.46,1.77-1.94.71-2.94,1l-14,8.07-3.32,2.78c-5.65,4.68-11.49,9.16-16.92,14.08a172.73,172.73,0,0,0-21.54,22.88c1.6.34,1.31,1.26,1.16,2.59a199,199,0,0,0,5.31,73.73c.89,3.35,1.7,6.73,2.55,10.09A246,246,0,0,1,138,162.16a4,4,0,0,0-.07-.48c-.45-1.53-3.77-2.26-1.59-4.41,1.63-1.62,2.35,1.63,3.95,1.32l0-.07c-.39-1.5.26-2.18,1.74-2.21h0c0-.9.1-1.7,1.22-1.85-.4-2.36-.19-4.25,3-3.86l-.18-.22.22.19c-.37-1.6.29-2.26,1.87-2.08v0h0v0c.29-1.86.42-5.25.91-5.3,5.74-.62,5.94-8.84,12.08-8.58l-.23-.24.24.22c.38-2.78,1.9-4.27,4.79-4.18,0-1.41.66-2.08,2.08-1.91-.08-1.51.52-2.23,2.12-1.81l.06,0c-.44-2.52,1.22-2.29,2.82-2.13h0c-.09-2.6,2-2.71,3.7-3.2,7.32-3.09,13.52-8.15,20.76-11.47a246.36,246.36,0,0,1,24.54-9.31,30.42,30.42,0,0,0-4.49-.13,30.42,30.42,0,0,1,4.49.13,40.68,40.68,0,0,0,4.42-.52,146.3,146.3,0,0,1,48.43-2.82c11.41,1.16,22.37,4.29,33.35,7.35,2.39,1,4.2,3.6,7.3,2.73a26.62,26.62,0,0,0,10.67,5.35l.07,0a32.48,32.48,0,0,0,10,5.82l.08,0,1.08.8a9.09,9.09,0,0,0,4.85,3.27h0a60.39,60.39,0,0,0,11.14,8.74l0,0,.94,1,.18.24.3,0a11.55,11.55,0,0,0,4.26,4c1.34,2.71-.92,3.93-2.32,5.41-9.67,10.19-20.4,19.36-29.38,30.23h0c-4.25,3.95-8.55,7.84-12.73,11.86-4.89,4.7-4.83,4.73-9.76.39-1.23-1.08-2.43-2.28-4.18-2.53h0c-2.63-2.6-5.39-5-9.14-5.85v0a18.41,18.41,0,0,0-7.44-3.76c-29.67-9.21-55.85-4-77.8,18.83-21.07,21.9-25.13,58.62-9.19,84.33,13.7,22.1,33.32,34.61,59.5,35.6,11.44.44,22.81-.91,33-7.15V304a35.11,35.11,0,0,0,15.08-9.86c5.13-3.23,8.95-7.82,12.48-12.58a68.62,68.62,0,0,0,13.65-37.76c.13-2.24.06-4.2,3.37-4.17,22.76.19,45.51.22,68.27.31l.21,2.2c.27,3.26.62,6.53.72,9.77-.1-3.24-.45-6.51-.72-9.77L400.33,268h0c-.17,1-.35,1.91-.53,2.87h0a22.2,22.2,0,0,0-1.82,7.08c3.43-1.4,7.25-1.79,10.4-4,1.09,0,2.24.16,3-1,4.08-.73,7.51-2.91,11-5h0a5.57,5.57,0,0,0,4.05-2c8.68-2.26,15.68-7.5,22.37-13.07,9.8-8.16,15.78-18.83,19.36-31,.81-2.74,2.12-5.33,3.2-8l.12-5.41.75-11.45C473.25,193.32,469.85,190,471.12,186.19ZM370.43,198.14h0a6.14,6.14,0,0,1-.95-1.57A6.14,6.14,0,0,0,370.43,198.14Zm-.71,1a12.34,12.34,0,0,1-1.15,1.33A12.34,12.34,0,0,0,369.72,199.1ZM364.55,202a9,9,0,0,0-2.74.64A9,9,0,0,1,364.55,202Zm37.8,70a2.06,2.06,0,0,1,1,2C402.07,273.74,400.85,273.53,402.35,271.94Z"/><polygon class="cls-12" points="32.72 146.61 31.65 161.88 43.62 171.41 28.77 175.12 23.4 189.45 15.29 176.47 0 175.79 9.84 164.07 5.76 149.32 19.95 155.05 32.72 146.61"/><polygon class="cls-12" points="71.92 71.77 70.57 91.71 86.22 104.13 66.84 109 59.87 127.72 49.25 110.8 29.28 109.95 42.1 94.62 36.73 75.37 55.28 82.82 71.92 71.77"/><polygon class="cls-12" points="129.21 0 126.25 24.41 144.69 40.69 120.56 45.42 110.78 67.98 98.82 46.49 74.34 44.16 91.08 26.15 85.73 2.15 108.04 12.5 129.21 0"/><text class="cls-13" transform="translate(528.99 293.37)">Charis</text><text class="cls-14" transform="translate(589.68 359.34)">CONSU<tspan class="cls-15" x="458.59" y="0">L</tspan><tspan class="cls-16" x="539.33" y="0">T</tspan></text></g></g></svg>